<svg version="1.1" baseProfile="full" xmlns="http://www.w3.org/2000/svg"
 width="100%" height="100%" viewBox="0 0 10240 10240" preserveAspectRatio="xMidYMid meet">
<g id="svg" fill="black" stroke="none" stroke-linecap="round">
<path d="M0 5120l0 5120 5120 0 5120 0 0 -5120 0 -5120 -5120 0 -5120 0 0 5120 z" fill="none"/>
<path d="M4890 2105c-88 8 -224 26 -302 40 -79 14 -216 48 -305 75 -90 28 -232 79 -317 115
-84 35 -228 107 -319 158 -91 52 -229 142 -306 201 -96 72 -199 164 -324 289
-142 141 -209 217 -298 339 -65 88 -158 232 -213 330 -74 132 -117 225 -182 393
-70 181 -93 255 -129 421 -34 151 -49 249 -62 396 -10 108 -15 200 -11 203
3 4 45 -6 92 -21 l85 -28 6 -75 c3 -42 13 -134 21 -206 9 -71 33 -200 53 -286
21 -85 68 -234 105 -330 39 -104 99 -237 149 -329 46 -86 133 -225 192 -310
89 -128 140 -189 294 -345 162 -166 209 -207 369 -322 145 -106 220 -152 365 -225
110 -57 246 -116 345 -150 89 -32 241 -76 337 -98 113 -26 232 -45 335 -55
108 -10 222 -13 350 -10 145 4 232 12 367 34 135 23 224 45 372 93 108 35 268 95 356 135
108 49 216 108 332 182 113 72 221 152 316 233 79 68 196 181 261 252 65 71 167 197 226 281
77 109 135 206 204 341 52 104 120 254 150 334 30 80 73 221 96 313 29 123 45 217 58 355
l18 187 84 27 c46 15 86 25 89 23 2 -3 -1 -83 -8 -177 -7 -95 -25 -241 -42 -327
-16 -85 -54 -234 -85 -331 -31 -96 -87 -245 -124 -330 -38 -85 -110 -224 -159 -308
-50 -84 -137 -215 -193 -290 -60 -81 -164 -201 -255 -294 -103 -107 -203 -197 -308 -279
-105 -81 -214 -154 -336 -225 -111 -63 -246 -130 -350 -174 -93 -38 -227 -88 -299 -110
-71 -22 -214 -56 -317 -75 -152 -29 -227 -37 -405 -45 -176 -8 -249 -7 -378 5
z" fill="rgb(42, 105, 172)"/>
<path d="M4790 2415c-99 14 -250 43 -335 65 -85 22 -226 68 -312 103 -87 34 -223 97 -302 141 
-79 43 -207 124 -285 180 -110 79 -183 143 -331 291 -166 166 -205 211 -307 357 
-74 106 -149 229 -203 334 -48 91 -84 168 -82 170 2 3 124 -16 271 -41 193 -33 354 -53 589 -72 
177 -16 332 -31 344 -35 12 -4 32 -26 43 -49 12 -23 24 -65 26 -93 3 -35 -2 -68 -15 -106 
-13 -36 -35 -70 -65 -100 -42 -41 -54 -46 -143 -66 -83 -18 -103 -26 -135 -57 
-21 -20 -42 -54 -49 -77 -9 -31 -10 -53 -2 -83 6 -25 27 -59 49 -84 30 -32 50 -44 81 -49 
23 -3 58 -3 78 0 20 4 54 23 76 43 30 27 46 54 66 112 14 42 41 95 60 118 
18 23 57 55 87 72 30 16 81 35 114 41 42 7 74 7 106 0 25 -5 100 -37 166 -70 
66 -33 163 -76 215 -95 52 -19 148 -47 213 -62 107 -26 121 -32 159 -68 
29 -29 48 -59 62 -103 12 -34 21 -87 21 -120 0 -51 -6 -70 -45 -141 -25 -45 -45 -94 -45 -109 
0 -15 9 -48 20 -74 11 -26 34 -56 50 -68 16 -11 51 -26 77 -33 43 -11 53 -10 95 10 
29 13 60 38 78 63 24 33 30 51 30 93 0 43 -8 65 -45 129 -37 63 -45 86 -45 126 
0 26 7 73 16 102 9 30 29 74 46 97 16 24 42 50 58 58 16 8 95 32 175 53 
118 30 178 53 323 122 l177 85 95 0 c86 0 101 -3 154 -30 42 -21 71 -45 97 -80
21 -27 53 -86 71 -130 26 -64 42 -87 77 -114 40 -31 48 -33 102 -29 47 3 66 10 98 36 
27 22 46 48 57 80 12 33 15 59 10 87 -5 27 -21 53 -50 82 -38 38 -55 46 -142 68 
-92 24 -101 29 -151 79 -47 47 -55 61 -65 113 -6 33 -8 79 -4 104 4 24 17 62 29 84 
l23 40 291 22 c194 15 396 38 609 70 176 26 321 47 323 46 2 -1 -34 -73 -79 -160 
-45 -87 -116 -210 -158 -273 -42 -63 -134 -184 -204 -268 -83 -98 -179 -197 -266 -275 
-77 -69 -198 -163 -276 -215 -76 -51 -202 -126 -280 -166 -81 -42 -221 -103 -324 -140 
-105 -38 -247 -81 -337 -101 -85 -19 -218 -42 -295 -50 -77 -8 -210 -15 -295 -15 
-111 0 -206 7 -335 25 z" fill="rgb(38, 45, 70)"/>
<path d="M3835 4925c-8 -83 -10 -151 -5 -153 l12 -3 c2 -31 5 -63 8 -89 6 -52 27 -145 45 -206
19 -61 59 -159 91 -220 31 -60 83 -143 114 -184 32 -41 97 -113 145 -158
54 -51 134 -112 208 -159 90 -56 153 -87 244 -119 74 -26 164 -49 228 -58
76 -12 148 -15 260 -11 110 4 183 12 253 28 53 12 152 46 220 75 86 37 154 75 230 130
62 44 143 115 191 167 49 52 114 137 156 205 51 82 85 152 114 234 23 65 51 168 62 230
17 93 20 139 16 281 -4 150 -8 184 -36 284 -17 63 -28 117 -25 120 3 3 44 17 90 31
l85 25 20 -65 c11 -36 29 -119 40 -185 17 -98 20 -151 16 -295 -4 -159 -7 -188 -40 -320
-24 -95 -54 -185 -89 -260 -28 -63 -84 -165 -124 -226 -40 -61 -111 -152 -159 -202
-56 -59 -131 -123 -214 -181 -99 -70 -157 -102 -263 -146 -83 -35 -189 -69 -270 -89
-125 -29 -144 -31 -328 -31 -185 0 -202 2 -332 33 -84 20 -181 51 -252 83
-64 27 -169 84 -233 125 -78 50 -152 109 -223 177 -77 75 -126 133 -183 219
-52 79 -97 164 -137 260 -49 115 -66 173 -90 293 -24 124 -30 175 -30 297
0 100 6 181 19 260 11 62 29 143 41 181 11 37 24 67 28 67 4 0 46 -12 92 -27
l85 -28 -33 -115 c-24 -83 -37 -158 -47 -270 0 -2 0 -3 0 -5 z" fill="rgb(38, 45, 70)"/>
<path d="M4416 4076l2 6 3 6 c7 0 104 75 222 172 122 102 241 202 264 222 l42 37 40 -16
c23 -9 41 -21 41 -27 0 -6 21 -148 46 -316 25 -168 48 -311 50 -319 2 -8 7 -11 10 -8
3 3 28 150 54 327 27 178 50 323 52 324 2 0 18 8 35 18 31 16 34 15 60 -5
16 -12 87 -71 158 -132 72 -60 178 -150 238 -199 59 -48 107 -82 107 -75
0 8 -59 93 -131 189 -71 96 -159 212 -195 257 -41 51 -64 89 -61 100 2 10 15 32 28 48
l24 30 328 50 c281 42 329 47 336 35 4 -8 17 -34 28 -57 15 -32 31 -48 66 -65
38 -18 47 -28 47 -48 -1 -14 -14 -68 -30 -122 -16 -53 -44 -129 -63 -170
-18 -40 -61 -114 -95 -164 l-61 -92 -53 22 c-50 20 -56 20 -98 6 -34 -11 -52 -26 -75 -60
-24 -37 -30 -54 -28 -95 1 -27 3 -59 5 -70 2 -16 -18 -32 -102 -80 -70 -40 -141 -71 -212 -92
-60 -18 -130 -36 -157 -39 l-49 -6 -11 35 c-7 20 -29 51 -50 70 -21 19 -54 37 -75 41
-27 5 -47 2 -74 -11 -20 -10 -51 -36 -68 -59 -18 -22 -34 -49 -36 -60 -3 -19 -5 -19 -93 -1
-49 10 -133 35 -188 55 -54 20 -131 57 -170 82 l-72 45 0 80 c0 72 -3 84 -28 117
-4 5 -7 10 -11 14 z" fill="rgb(38, 45, 70)"/>
<path d="M3606 4429l-12 -10 c-11 -9 -14 -53 -14 -199 l0 -187 35 -7 c19 -3 65 -6 101 -6
l67 2 c3 -5 5 -8 6 -9 9 -10 -12 -12 -99 -8 -60 3 -114 8 -120 11 -6 3 -9 63 -9 152
1 81 4 197 8 257 l6 110 31 -106 z" fill="rgb(56, 61, 86)"/>
<path d="M6512 4082c28 46 72 140 99 209 27 70 58 160 69 200 l19 74 1 -276 0 -276 -118 -7
-119 -7 49 83 z" fill="rgb(38, 45, 70)"/>
<path d="M3142 4068c-13 2 -22 5 -27 7 -19 8 -39 16 -45 18 -4 0 -6 36 -8 102 -1 52 -2 124 -2 212
l0 198 0 113 207 -31 208 -32 0 -10 1 -300 0 -310 0 -5 c-1 -3 -74 3 -163 13
-67 7 -134 17 -171 25 z" fill="rgb(38, 45, 70)"/>
<path d="M3606 4429l3 -9 c19 -63 64 -178 102 -255 30 -63 60 -121 72 -143 l-67 -2
c-36 0 -82 3 -101 6 l-35 7 0 187 c0 146 3 190 14 199 l12 10 z" fill="rgb(38, 45, 70)"/>
<path d="M6787 4195l10 -77 c4 -73 6 -78 27 -78 12 0 25 -3 28 -6 1 0 2 0 3 0 l-34 -6
-34 -3 0 170 z" fill="rgb(36, 42, 74)"/>
<path d="M6787 4195l0 110 c0 154 -1 296 -1 315 l-1 35 186 26 c103 15 201 30 218 34
l31 7 0 -325 0 -324 -181 -22 c-91 -12 -169 -19 -184 -17 -1 0 -2 0 -3 0
-3 3 -16 6 -28 6 -21 0 -23 5 -27 78 l-10 77 z" fill="rgb(38, 45, 70)"/>
<path d="M3475 4645l1 -305 0 -305 0 310 -1 300 z" fill="rgb(19, 25, 58)"/>
<path d="M3142 4068l-9 -5 c-5 1 -26 4 -48 7 l-40 5 -3 323 c-1 210 1 322 8 321 l10 -1
0 -113 -5 -205 7 -205 c2 -66 4 -102 8 -102 6 -2 26 -10 45 -18 5 -2 14 -5 27 -7
z" fill="rgb(81, 85, 106)"/>
<path d="M4416 4076c-17 17 -35 28 -58 34 -33 9 -50 8 -92 -5 l-51 -17 -39 43 c-21 24 -68 99 -103 167
-46 88 -73 154 -94 234 -16 62 -29 115 -29 119 0 4 15 13 34 19 19 6 51 29 70 51
20 21 36 48 36 58 0 11 5 23 10 26 6 4 158 -15 339 -42 l329 -48 23 -43
c20 -38 21 -46 9 -65 -7 -12 -96 -131 -197 -263 -100 -133 -183 -248 -183 -255
0 0 0 -1 1 -1 l-3 -6 -2 -6 z" fill="rgb(38, 46, 73)"/>
<path d="M2778 4113c-68 12 -137 25 -155 29 -30 7 -33 12 -67 117 l-36 111 0 197 c0 109 3 214 6 233
l5 35 214 -50 215 -50 0 -322 0 -323 -30 0 c-16 0 -85 10 -152 23 z" fill="rgb(38, 45, 70)"/>
<path d="M7743 4615l-2 -86 c0 -45 2 -95 5 -115 0 -1 0 -2 0 -2 5 -23 -5 -63 -32 -142
-20 -61 -45 -115 -53 -120 -9 -4 -85 -20 -170 -34 -84 -14 -162 -26 -172 -26
-19 0 -19 10 -17 323 l3 322 215 47 c118 26 215 46 216 45 1 -1 4 -94 7 -207
l0 -5 z" fill="rgb(38, 45, 70)"/>
<path d="M3062 4195l-7 205 5 205 0 -198 c0 -88 1 -160 2 -212 z" fill="rgb(19, 25, 58)"/>
<path d="M7743 4615l3 -201 c-3 20 -5 70 -5 115 l2 86 z" fill="rgb(124, 127, 141)"/>
<path d="M5015 4564c-32 14 -74 40 -93 58 -19 18 -45 56 -58 83 -13 28 -26 75 -29 105
-4 35 -1 75 9 110 8 31 24 64 35 74 12 11 23 17 25 15 2 -2 -5 -31 -15 -64
-10 -33 -18 -71 -18 -85 0 -14 6 -51 14 -82 10 -42 24 -69 56 -103 24 -26 60 -55 80 -66
21 -10 62 -21 91 -25 46 -5 62 -2 120 24 40 19 78 46 97 69 18 21 38 57 46 81
8 23 15 66 15 96 0 29 -7 74 -16 100 -9 26 -13 50 -9 54 4 4 13 -2 21 -13
8 -11 21 -39 29 -63 8 -23 15 -62 15 -86 0 -24 -7 -70 -17 -102 -13 -47 -27 -70 -73 -116
-43 -43 -69 -60 -110 -72 -30 -9 -77 -16 -105 -16 -32 0 -73 9 -110 24 z" fill="rgb(36, 42, 74)"/>
<path d="M5039 4694c-27 17 -49 40 -65 72 -13 26 -24 64 -24 84 0 19 10 56 23 80 12 25 35 53 51 63
20 12 49 17 106 17 66 0 83 -4 114 -25 20 -14 44 -41 52 -60 7 -19 14 -55 14 -80
0 -27 -9 -63 -21 -86 -12 -24 -37 -51 -60 -65 -29 -18 -54 -24 -94 -24 -40 0 -66 7 -96 24
z" fill="rgb(38, 45, 70)"/>
<path d="M3835 4925l3 -75 c0 -21 2 -50 4 -81 l-12 3 c-5 2 -3 70 5 153 z" fill="rgb(81, 85, 106)"/>
<path d="M4090 4856c0 25 2 26 35 20 19 -3 60 -9 92 -13 l56 -8 -91 -13 -92 -12 0 26
z" fill="rgb(69, 72, 100)"/>
<path d="M6110 4840c-12 3 -39 6 -60 8 -21 1 -41 5 -43 10 -3 4 34 9 82 12 47 3 87 5 88 5
1 -1 0 -11 -4 -23 -3 -14 -12 -21 -24 -19 -10 1 -27 4 -39 7 z" fill="rgb(63, 66, 87)"/>
<path d="M2821 7090l4 0 c3 0 5 2 5 3 0 2 9 11 20 20 11 10 22 17 25 17 3 0 2 3 -1 7
l-4 6 c28 29 56 58 77 80 43 42 80 76 83 75 3 -2 35 27 71 63 36 37 133 116 215 175
109 80 207 139 364 222 163 86 257 128 397 177 103 37 259 82 358 105 102 23 250 48 355 60
109 12 247 20 350 20 93 0 233 -7 310 -15 77 -8 209 -28 294 -45 85 -16 227 -52 315 -80
89 -27 231 -80 317 -117 93 -39 232 -110 340 -174 120 -70 236 -149 340 -230
105 -83 208 -176 309 -280 99 -102 188 -206 260 -305 60 -82 151 -222 201 -310
51 -89 122 -233 159 -321 36 -87 91 -245 121 -351 38 -131 64 -250 83 -379
24 -156 32 -188 45 -185 9 1 140 36 290 77 151 41 361 104 465 140 105 35 200 69 212 75
11 7 23 9 26 6 4 -3 -73 -44 -171 -91 -97 -47 -286 -130 -420 -185 -134 -55 -359 -138 -500 -185
-141 -47 -380 -116 -531 -155 -151 -38 -390 -90 -530 -115 -140 -25 -277 -48 -304 -51
l-50 -6 -3 104 -3 103 33 3 c17 1 136 16 262 32 127 17 338 50 470 75 132 25 332 68 445 95
113 28 210 54 217 60 8 7 8 38 -1 127 -7 65 -28 188 -47 273 -20 85 -62 232 -94 325
-34 97 -95 243 -143 340 -46 94 -127 237 -180 318 -53 81 -155 218 -227 303
-85 101 -180 199 -271 280 -77 69 -214 176 -305 239 -109 77 -225 147 -347 209
-118 60 -244 115 -355 155 -95 34 -248 79 -340 100 -97 23 -244 48 -350 60
-153 18 -221 20 -422 16 -204 -4 -267 -9 -421 -35 -109 -18 -254 -51 -363 -83
-120 -34 -241 -79 -360 -131 -109 -48 -247 -119 -352 -182 -109 -65 -232 -150 -328 -226
-105 -83 -200 -171 -296 -272 -77 -82 -185 -208 -239 -280 -54 -72 -141 -204 -194 -294
-53 -90 -123 -228 -157 -307 -34 -80 -88 -232 -120 -339 -47 -154 -64 -232 -86 -384
-15 -104 -24 -196 -21 -205 4 -11 63 -30 192 -62 102 -25 305 -68 450 -95
146 -28 383 -65 527 -82 l263 -33 -4 -100 c-1 -55 -4 -101 -6 -103 -2 -2 -105 13 -229 32
-124 20 -352 65 -506 101 -155 36 -393 101 -535 145 -140 44 -361 121 -490 170
-129 50 -348 142 -486 206 -138 64 -248 118 -246 121 3 2 84 -23 181 -56
97 -34 321 -101 498 -151 177 -49 323 -89 324 -87 1 1 12 74 24 162 12 88 39 232 61 320
21 89 69 241 108 345 45 120 101 243 159 350 50 93 137 233 199 320 61 85 145 193 186 240
9 9 18 19 28 30 z" fill="rgb(38, 45, 70)"/>
<path d="M4560 4895c-15 -1 -25 -1 -27 0 -3 3 1 5 10 5 3 0 8 2 15 4 l1 -4 1 -5 z" fill="rgb(152, 160, 170)"/>
<path d="M4560 4895l-1 5 -1 4 c16 6 39 18 62 31 33 19 76 49 96 65 20 17 47 30 59 30
22 0 22 0 7 -55 -8 -30 -19 -55 -24 -55 -4 0 -55 -7 -113 -15 -33 -5 -64 -8 -85 -10
z" fill="rgb(36, 42, 74)"/>
<path d="M5559 4912l-55 7 -16 56 c-13 46 -13 57 -2 62 7 2 19 3 26 1 7 -1 45 -25 84 -53
39 -27 84 -57 99 -65 29 -15 28 -15 -26 -15 -30 0 -80 3 -110 7 z" fill="rgb(36, 42, 74)"/>
<path d="M6140 4987c-16 -1 -34 -2 -56 -3 -63 -2 -143 -1 -178 2 -35 3 -89 16 -120 30
-30 13 -58 24 -61 24 -4 0 -3 -5 1 -11 l2 -4 c-29 16 -62 37 -93 61 -72 54 -104 71 -207 107
-115 39 -132 42 -249 46 -89 2 -149 -1 -207 -13 -45 -9 -121 -32 -168 -52
-47 -20 -117 -60 -155 -89 -38 -30 -97 -65 -133 -79 -35 -14 -104 -31 -153 -38
-70 -9 -110 -9 -178 0 -52 7 -117 24 -162 43 l-75 31 6 49 c4 27 18 87 32 132
l25 83 110 -3 c73 -2 141 3 207 15 53 9 144 35 202 57 91 35 112 47 165 100
39 39 82 69 122 87 43 19 102 33 184 45 103 14 137 15 225 5 58 -6 143 -24 190 -39
74 -24 96 -37 155 -90 55 -50 87 -69 168 -102 56 -23 148 -50 206 -61 72 -14 137 -19 207 -17
l102 2 28 -81 c15 -45 29 -103 30 -130 l3 -49 -59 -28 c-40 -20 -61 -26 -116 -30
z" fill="rgb(42, 105, 172)"/>
<path d="M6140 4987l-65 -17 c-42 -6 -94 -7 -148 -1 -46 6 -111 19 -146 31 -15 6 -33 14 -53 25
l-2 4 c-4 6 -5 11 -1 11 3 0 31 -11 61 -24 31 -14 85 -27 120 -30 35 -3 115 -4 178 -2
22 1 40 2 56 3 z" fill="rgb(62, 111, 177)"/>
<path d="M3433 5148c-52 3 -53 3 -53 35 0 18 15 97 34 176 19 79 39 148 45 154 7 7 33 -5 80 -37
39 -25 78 -49 86 -54 12 -6 9 -28 -23 -142 l-37 -135 -40 0 c-22 0 -64 1 -92 3
z" fill="rgb(38, 45, 70)"/>
<path d="M6685 5211c-9 41 -25 103 -37 139 -15 46 -18 65 -9 68 7 2 47 25 89 50 l77 47 23 -60
c13 -33 34 -112 47 -175 13 -63 22 -118 19 -121 -2 -4 -47 -10 -99 -14 l-95 -7 -15 73
z" fill="rgb(38, 45, 70)"/>
<path d="M5020 7922l113 1 112 -1 c48 -1 91 -3 120 -5 66 -4 199 -22 295 -40 101 -18 246 -54 343 -84
92 -29 248 -89 347 -133 137 -61 225 -109 364 -199 139 -90 224 -153 344 -259
101 -89 202 -189 274 -274 63 -73 157 -196 209 -273 52 -77 131 -212 176 -300
45 -88 106 -227 137 -310 30 -82 73 -224 95 -315 21 -91 45 -209 52 -263
8 -61 9 -101 3 -107 -5 -5 -112 -32 -237 -60 -125 -27 -340 -68 -478 -90
-139 -22 -264 -39 -278 -37 -25 2 -27 7 -48 117 -12 66 -43 172 -71 250
-28 74 -85 198 -127 274 -59 109 -102 171 -198 285 -101 121 -145 164 -260 255
-113 89 -172 127 -314 200 -137 71 -205 100 -317 133 -90 27 -195 50 -289 63
-118 16 -181 19 -317 15 -134 -4 -200 -11 -309 -34 -92 -19 -193 -49 -296 -88
-116 -44 -193 -81 -291 -141 -81 -50 -184 -125 -261 -189 -90 -77 -157 -147 -236 -243
-95 -116 -123 -159 -198 -306 -65 -127 -98 -206 -128 -305 -22 -74 -45 -169 -52 -211
-10 -62 -16 -78 -30 -78 -9 0 -135 18 -280 40 -144 22 -368 63 -496 91 -129 28 -236 56 -239 63
-2 6 11 95 30 199 23 126 52 245 91 365 31 97 86 242 123 322 37 83 113 220 175 320
76 120 151 223 239 327 80 96 179 198 263 273 74 66 191 160 260 210 69 49 186 124 261 166
74 42 207 107 296 145 88 38 240 91 336 119 115 34 239 61 361 80 133 21 210 29 331 32
z" fill="rgb(38, 45, 70)"/>
<path d="M3890 5435c-55 14 -124 35 -152 48 -29 12 -93 47 -141 77 -77 47 -88 57 -84 78
2 13 42 86 87 163 67 113 86 139 99 132 9 -4 62 -25 117 -46 82 -31 125 -41 220 -50
104 -11 130 -10 208 6 48 9 122 30 162 45 41 15 131 63 200 106 87 55 152 88 208 105
44 14 133 32 197 40 95 12 137 12 228 3 61 -7 156 -25 211 -42 80 -24 126 -46 231 -112
104 -66 152 -90 235 -115 75 -24 131 -34 199 -38 61 -3 129 0 189 10 57 10 130 31 187 54
85 36 94 38 106 23 8 -10 47 -77 88 -151 41 -73 75 -139 75 -145 0 -7 -31 -33 -70 -59
-39 -26 -117 -65 -175 -87 -58 -22 -144 -47 -191 -55 -48 -8 -138 -15 -200 -15
-77 0 -141 6 -198 19 -47 11 -118 34 -158 51 -52 21 -92 47 -131 84 -31 30 -82 67 -112 82
-31 15 -101 37 -156 50 -78 19 -127 24 -234 24 -80 0 -166 -6 -210 -15 -41 -8 -104 -26 -140 -40
-45 -19 -86 -46 -139 -94 -53 -49 -95 -76 -141 -95 -36 -14 -107 -35 -158 -46
-66 -14 -129 -20 -224 -20 -109 0 -151 5 -233 25 z" fill="rgb(42, 105, 172)"/>
<path d="M7045 5905c-43 85 -76 156 -74 158 2 1 103 55 224 120 122 64 226 117 233 117
7 0 46 -68 87 -151 41 -83 75 -157 75 -164 0 -7 -14 -19 -32 -26 -27 -11 -32 -11 -36 2
-3 7 -31 65 -63 127 l-59 112 -59 -30 c-33 -16 -62 -34 -65 -39 -3 -5 17 -56 44 -115
l50 -105 -31 -16 c-17 -9 -32 -15 -34 -13 -1 2 -26 49 -54 106 l-51 102 -60 -30
c-33 -16 -63 -32 -66 -34 -3 -2 20 -54 50 -115 31 -61 56 -117 56 -125 0 -7 -13 -19 -28 -25
l-29 -12 -78 156 z" fill="rgb(254, 254, 254)"/>
<path d="M2924 5901c-169 82 -205 103 -199 117 3 9 11 24 18 32 11 13 18 13 60 -4
43 -17 54 -18 102 -6 29 7 58 16 65 20 7 5 -6 53 -44 155 l-54 148 26 33
c14 18 29 31 33 28 5 -2 33 -75 64 -162 31 -86 58 -162 60 -168 2 -7 43 0 119 22
64 19 130 37 146 40 l30 6 -18 -49 -19 -48 -171 -43 c-95 -23 -172 -46 -172 -50
0 -4 50 -29 110 -57 61 -27 110 -53 110 -57 0 -5 -7 -20 -16 -33 -9 -14 -23 -25 -30 -25
-8 0 -107 45 -220 101 z" fill="rgb(254, 254, 254)"/>
<path d="M6191 6331c8 -8 14 -14 17 -18 7 -13 20 -22 30 -20 l10 1 c32 -28 86 -80 141 -134
123 -122 134 -136 116 -145 -11 -5 -57 -22 -103 -37 -66 -23 -106 -29 -207 -33
-115 -5 -133 -3 -227 23 -85 24 -124 42 -235 110 -94 58 -163 92 -237 118
-67 23 -149 41 -227 52 -102 13 -141 14 -235 4 -62 -6 -157 -23 -211 -39
-61 -17 -130 -46 -181 -75 -45 -27 -120 -70 -167 -98 -59 -35 -114 -58 -181 -75
-69 -18 -123 -25 -189 -25 -56 0 -124 7 -172 19 -44 10 -100 28 -126 39
-26 12 -47 26 -47 32 0 6 41 53 90 105 49 52 145 136 212 186 79 59 176 119 271 168
117 59 182 85 298 119 85 24 200 48 269 57 65 8 171 15 234 15 63 0 178 -9 255 -20
85 -12 191 -35 271 -60 75 -23 185 -67 260 -105 72 -36 163 -86 203 -112
26 -18 52 -37 68 -52 z" fill="rgb(38, 45, 70)"/>
<path d="M6829 6278c-34 17 -71 48 -100 82 -35 42 -49 69 -58 110 -9 44 -8 66 3 111
8 31 31 77 50 102 21 27 60 60 93 79 52 29 67 33 134 33 67 0 84 -4 130 -30
38 -21 63 -47 91 -88 34 -52 38 -66 38 -120 0 -46 -6 -72 -24 -103 -12 -22 -39 -59 -60 -81
l-37 -41 -73 86 -74 87 24 24 23 24 46 -51 c26 -29 50 -52 54 -52 4 0 15 14 24 30
10 17 18 47 19 68 0 21 -10 58 -22 82 -16 32 -35 50 -68 67 -27 13 -63 23 -89 23
-24 0 -63 -8 -87 -18 -28 -12 -56 -35 -79 -65 -23 -30 -38 -63 -42 -91 -5 -33 -2 -55 13 -88
12 -27 38 -59 66 -81 25 -21 63 -40 84 -44 34 -7 37 -11 40 -45 3 -37 2 -38 -31 -38
-18 0 -58 12 -88 28 z" fill="rgb(254, 254, 254)"/>
<path d="M3322 6383c-67 66 -133 138 -147 161 -18 30 -25 57 -25 92 0 27 9 67 19 89
10 22 39 59 64 83 33 29 62 46 95 53 42 10 54 9 94 -9 29 -13 94 -67 181 -150
l136 -129 -28 -27 c-15 -14 -30 -26 -34 -26 -4 0 -65 58 -136 129 -102 102 -137 131 -164 136
-22 4 -46 2 -63 -7 -15 -7 -40 -29 -55 -48 -16 -19 -30 -48 -33 -65 -2 -16 -1 -43 4 -58
5 -17 61 -78 139 -151 l130 -123 -27 -34 -27 -34 -123 118 z" fill="rgb(254, 254, 254)"/>
<path d="M6191 6331l33 -16 c4 -3 13 -10 24 -21 l-10 -1 c-10 -2 -23 7 -30 20 -3 4 -9 10 -17 18
z" fill="rgb(63, 66, 87)"/>
<path d="M3736 6896c-70 120 -128 223 -129 229 -1 5 53 43 121 83 111 65 126 72 169 69
39 -2 55 -9 86 -39 26 -24 40 -48 44 -73 4 -24 0 -48 -11 -71 -9 -19 -16 -37 -16 -39
0 -3 13 -5 29 -5 21 0 38 -11 64 -39 20 -22 39 -55 42 -73 4 -18 2 -45 -4 -60
-6 -15 -34 -47 -63 -70 -29 -24 -87 -63 -128 -87 l-76 -44 -128 219 z" fill="rgb(254, 254, 254)"/>
<path d="M6335 6714c-20 8 -78 42 -131 76 -63 42 -91 66 -86 74 5 6 69 103 142 216
74 115 138 204 146 204 8 -1 58 -33 112 -70 53 -38 110 -86 127 -106 24 -30 30 -48 33 -101
4 -54 0 -74 -23 -124 -16 -37 -45 -78 -76 -107 -27 -25 -68 -53 -90 -61
-23 -8 -59 -15 -80 -15 -22 0 -55 6 -74 14 z" fill="rgb(254, 254, 254)"/>
<path d="M3858 6842l-38 67 30 20 c17 12 48 30 70 41 21 11 48 20 58 20 11 0 31 -10 46 -21
22 -17 27 -28 24 -58 -3 -33 -10 -41 -78 -86 l-75 -50 -37 67 z" fill="rgb(38, 45, 70)"/>
<path d="M6330 6800c-22 11 -56 32 -75 48 l-36 27 100 153 c55 83 104 152 110 152
5 0 36 -20 68 -44 33 -24 69 -56 81 -71 16 -20 22 -41 22 -80 0 -42 -7 -63 -34 -106
-21 -33 -49 -63 -74 -76 -23 -14 -57 -23 -81 -23 -22 0 -59 9 -81 20 z" fill="rgb(38, 45, 70)"/>
<path d="M5908 6934c-16 6 -28 15 -28 21 0 6 40 114 89 240 48 127 90 236 93 244 3 12 10 12 41 2
31 -11 37 -16 31 -33 -3 -10 -46 -124 -95 -251 -48 -128 -92 -232 -96 -232
-4 0 -20 4 -35 9 z" fill="rgb(254, 254, 254)"/>
<path d="M4256 7182c-54 174 -74 253 -67 259 6 5 81 32 167 60 86 28 159 47 164 43
4 -5 10 -21 14 -36 6 -25 2 -28 -47 -46 -29 -11 -71 -25 -94 -31 -23 -6 -60 -18 -82 -26
l-41 -14 25 -68 c14 -37 30 -69 34 -71 5 -1 52 11 106 28 53 18 99 30 101 28
2 -2 5 -20 6 -39 l3 -34 -101 -35 -101 -35 17 -50 c9 -27 19 -57 22 -65
3 -11 28 -6 132 29 70 23 129 41 130 39 2 -1 8 -18 14 -35 6 -18 7 -35 3 -37
-4 -3 -79 -29 -168 -59 l-160 -55 -77 250 z" fill="rgb(254, 254, 254)"/>
<path d="M3746 7038c-20 33 -36 64 -36 69 0 4 38 29 84 53 73 39 88 43 112 35 20 -7 32 -20 39 -42
6 -21 6 -43 0 -60 -7 -20 -31 -40 -86 -71 l-77 -43 -36 59 z" fill="rgb(38, 45, 70)"/>
<path d="M5475 7050c-63 11 -118 22 -121 24 -3 2 13 111 36 243 22 131 43 248 46 261
4 20 9 23 34 18 17 -3 34 -9 39 -13 4 -5 2 -39 -5 -78 -7 -38 -13 -80 -13 -91
-1 -18 7 -23 59 -31 l60 -10 81 84 81 83 40 -10 39 -11 -78 -87 -78 -87 33 -32
c23 -23 34 -44 38 -76 4 -26 1 -61 -6 -83 -7 -22 -26 -53 -42 -71 -21 -21 -46 -35 -79 -42
-40 -9 -71 -7 -164 9 z" fill="rgb(254, 254, 254)"/>
<path d="M4799 7205c-4 77 -8 196 -9 265 l-2 125 46 8 c25 4 89 7 141 7 61 0 108 -5 130 -14
19 -8 47 -32 61 -53 22 -32 25 -46 21 -92 -3 -45 -9 -59 -35 -82 l-32 -28 30 -41
c19 -25 30 -53 30 -73 0 -18 -9 -49 -20 -69 -12 -23 -35 -45 -60 -58 -30 -15 -70 -22 -167 -27
l-128 -8 -6 140 z" fill="rgb(254, 254, 254)"/>
<path d="M2821 7090c15 17 32 35 49 53 l4 -6 c3 -4 4 -7 1 -7 -3 0 -14 -7 -25 -17
-11 -9 -20 -18 -20 -20 0 -1 -2 -3 -5 -3 l-4 0 z" fill="rgb(124, 127, 141)"/>
<path d="M5510 7120c-27 6 -54 13 -59 18 -6 4 -4 39 5 86 7 44 18 83 24 88 5 4 44 1 86 -8
53 -10 83 -23 100 -39 16 -16 24 -36 24 -58 0 -20 -9 -46 -21 -61 -15 -20 -33 -28 -65 -31
-24 -3 -66 0 -94 5 z" fill="rgb(38, 45, 70)"/>
<path d="M4880 7224l0 76 89 0 c86 0 90 -1 111 -27 15 -19 20 -37 17 -57 -2 -17 -14 -37 -26 -45
-14 -9 -56 -16 -107 -19 l-84 -5 0 77 z" fill="rgb(38, 45, 70)"/>
<path d="M4891 7371c3 -1 6 -1 8 -1 3 0 15 1 31 2 l35 1 c32 -3 35 -6 35 -33 0 -30 -1 -30 -55 -30
-45 0 -55 3 -56 18 -1 9 -1 22 0 29 l2 14 z" fill="rgb(255, 255, 255)"/>
<path d="M4891 7371c-5 1 -9 3 -12 5 -4 2 -7 22 -8 49 l13 -17 c9 -13 31 -18 82 -20
l69 -4 c-13 -3 -28 -5 -46 -6 -22 -3 -43 -4 -59 -6 -16 -1 -28 -2 -31 -2
-2 0 -5 0 -8 1 z" fill="rgb(51, 52, 83)"/>
<path d="M4871 7425c-1 9 -1 18 -1 27 0 39 1 73 3 75 2 1 44 4 93 5 69 2 96 -1 114 -13
17 -11 25 -27 28 -55 3 -31 -1 -44 -18 -59 -11 -10 -27 -16 -55 -21 l-69 4
c-51 2 -73 7 -82 20 l-13 17 z" fill="rgb(38, 45, 70)"/>
<path d="M5020 7922c13 0 26 0 40 0 57 1 125 1 185 0 l-112 1 -113 -1 z" fill="rgb(97, 103, 121)"/>
</g>
</svg>
